:SAMPLES-PER-SECOND 30
:FULLY-SPECIFIED
:DEGREES
833
root  64.6143 37.0112 1.29557 57.4083 85.672 62.0855
RightUpLeg  12.7762 5.98022 -5.36083
RightLeg  32.1512 3.55778 2.18169
RightFoot  -22.3236 0.681952 8.98321
RightToes  -1.33073e-015 0 -3.6325e-017
Spine  2.1549 3.16024 2.71851
Spine1  8.94988 5.38044 -8.89148
HEad  -38.0918 -7.17033 1.7549
LeftShoulder1  -0.332028 4.28765 -36.1403
LeftArm  -0.719617 14.4275 -35.653
LeftForeArm  44.483 -3.1765 -10.5027
LeftHand  -0.251063 10.59 -4.1427
RightShoulder  -0.868223 -5.8361 30.6138
RightArm  20.3921 -0.308816 46.6222
RightForeArm  7.13568 10.851 8.45843
RightHand  -0.124 3.73267 -1.84953
LeftUpLeg  -21.8541 6.79324 -2.95873
LeftLeg  18.6208 -0.891033 -0.0212842
LeftFoot  8.51101 -0.380165 1.88208
LeftToes  -1.63346e-009 7.54925e-011 9.86887e-012
834
root  65.6793 37.0397 0.944669 62.066 84.621 66.787
RightUpLeg  8.46242 5.03522 -7.91576
RightLeg  41.9143 3.32721 2.88713
RightFoot  -15.2427 0.396223 14.278
RightToes  -1.33073e-015 0 -3.6325e-017
Spine  2.6282 2.92277 1.09826
Spine1  8.86314 5.12407 -9.59178
HEad  -38.6904 -7.64026 2.70841
LeftShoulder1  -0.192485 3.96153 -35.8934
LeftArm  -1.57326 9.80221 -36.8003
LeftForeArm  44.68 -2.40786 -10.2772
LeftHand  -0.218107 10.0242 -3.92088
RightShoulder  -0.87085 -5.84799 30.5356
RightArm  17.8238 -2.97244 47.5533
RightForeArm  10.7063 9.12842 8.40245
RightHand  -0.106147 3.14451 -1.68793
LeftUpLeg  -21.1978 7.21218 -4.71121
LeftLeg  20.9255 -0.938677 -0.0459623
LeftFoot  6.26179 -0.567121 3.38329
LeftToes  -1.63346e-009 7.54925e-011 9.86887e-012
835
root  66.8829 37.276 0.602951 62.8457 83.4306 68.5863
RightUpLeg  4.57037 4.62439 -10.1045
RightLeg  50.8068 2.47935 2.91082
RightFoot  -4.00851 -0.768672 12.5148
RightToes  -1.33073e-015 0 -3.6325e-017
Spine  2.29753 2.67465 -0.899027
Spine1  10.6578 4.79339 -8.95403
HEad  -40.357 -7.97818 3.26654
LeftShoulder1  -0.18657 3.94481 -36.1186
LeftArm  -1.07497 4.20488 -37.5196
LeftForeArm  43.4271 -2.13209 -10.831
LeftHand  -0.14915 10.3969 -2.03537
RightShoulder  -0.872765 -5.85887 30.4455
RightArm  18.7791 -4.73886 48.0003
RightForeArm  12.5238 9.14427 8.5925
RightHand  -0.0673837 2.59282 -1.12652
LeftUpLeg  -17.8497 7.9872 -6.1421
LeftLeg  20.7245 -1.0801 -0.180591
LeftFoot  3.65041 -0.38669 2.77356
LeftToes  -1.63346e-009 7.54925e-011 9.86887e-012
836
root  67.8971 37.4527 0.126065 56.7887 81.4713 64.5058
RightUpLeg  1.07026 5.08106 -12.664
RightLeg  58.4231 2.01236 3.08324
RightFoot  2.99266 -0.890959 6.93471
RightToes  -1.33073e-015 0 -3.6325e-017
Spine  4.17381 2.6721 -0.93639
Spine1  11.1382 5.20724 -11.1063
HEad  -41.6498 -8.05763 3.62127
LeftShoulder1  -0.181602 3.93342 -36.0893
LeftArm  -0.746357 -1.51945 -38.0097
LeftForeArm  42.5911 -2.35202 -11.1793
LeftHand  -0.108635 9.58624 -1.46634
RightShoulder  -0.917707 -5.96807 30.6457
RightArm  22.0603 -6.58625 47.9955
RightForeArm  14.4066 10.8911 8.61084
RightHand  0.041276 1.26353 0.556238
LeftUpLeg  -13.4598 7.59678 -7.69363
LeftLeg  19.9208 1.03292 0.23652
LeftFoot  1.71535 -0.32083 2.72069
LeftToes  -1.63346e-009 7.54925e-011 9.86887e-012
837
root  68.7636 37.6762 -0.328742 52.1505 80.9471 60.7691
RightUpLeg  -2.91274 4.55177 -13.5935
RightLeg  63.2294 1.69401 3.10119
RightFoot  1.64397 -0.672465 6.06019
RightToes  -1.33073e-015 0 -3.6325e-017
Spine  5.35147 2.04877 -0.538558
Spine1  11.0501 4.65324 -11.8799
HEad  -42.6108 -7.98201 3.6267
LeftShoulder1  -0.178716 3.92766 -35.9728
LeftArm  -1.13662 -6.62893 -38.8075
LeftForeArm  40.237 -3.11254 -10.9943
LeftHand  -0.0774622 9.14218 -0.814412
RightShoulder  -0.925137 -5.99325 30.5696
RightArm  27.2918 -7.30592 47.85
RightForeArm  13.8461 12.7607 8.61017
RightHand  0.088082 2.01229 1.2218
LeftUpLeg  -10.3724 6.12971 -8.12019
LeftLeg  18.7592 3.34275 0.559469
LeftFoot  0.540927 -0.279125 2.62897
LeftToes  -1.63346e-009 7.54925e-011 9.86887e-012
838
root  69.6173 37.9361 -0.492441 54.0939 82.0923 62.7737
RightUpLeg  -6.3412 2.73438 -12.4802
RightLeg  64.392 1.48199 2.79574
RightFoot  0.0311887 -0.810816 8.10443
RightToes  -1.33073e-015 0 -3.6325e-017
Spine  5.16007 1.17215 -2.6505
Spine1  11.0469 2.74944 -8.55196
HEad  -43.0824 -7.14566 3.48917
LeftShoulder1  -0.150361 3.86355 -35.6431
LeftArm  -2.06653 -10.1699 -39.6712
LeftForeArm  37.5991 -5.64157 -10.2162
LeftHand  -0.0903717 9.31492 -1.1339
RightShoulder  -0.989758 -6.1674 30.591
RightArm  32.5535 -8.03116 47.227
RightForeArm  12.2729 15.0788 7.90908
RightHand  0.145868 1.97168 2.11973
LeftUpLeg  -8.2504 5.76569 -7.45377
LeftLeg  17.7806 2.86707 0.112118
LeftFoot  -0.57502 -0.19264 2.08954
LeftToes  -1.63346e-009 7.54925e-011 9.86887e-012
839
root  70.4038 38.1553 -0.556996 56.0237 83.1256 64.5952
RightUpLeg  -9.619 1.55532 -10.7686
RightLeg  63.0025 1.50392 2.65721
RightFoot  -0.120219 -0.785076 7.97136
RightToes  -1.33073e-015 0 -3.6325e-017
Spine  5.20388 0.695263 -4.23374
Spine1  10.9646 1.54152 -6.09584
HEad  -43.8327 -7.1207 4.09566
LeftShoulder1  -0.13795 3.83522 -35.4124
LeftArm  -2.0224 -14.6306 -40.1622
LeftForeArm  33.9338 -7.96554 -9.57581
LeftHand  -0.0617073 9.15974 -0.209409
RightShoulder  -1.00506 -6.21935 30.4504
RightArm  34.9863 -9.40313 47.1151
RightForeArm  10.3004 17.0321 6.94029
RightHand  0.119678 2.68499 1.58898
LeftUpLeg  -6.44155 6.07961 -6.5685
LeftLeg  16.822 1.973 -0.624362
LeftFoot  -0.848406 -0.301847 3.33726
LeftToes  -1.63346e-009 7.54925e-011 9.86887e-012
840
root  71.0808 38.3133 -0.581912 56.1654 83.5993 63.9937
RightUpLeg  -13.2803 1.3599 -9.19382
RightLeg  59.1855 1.52683 2.32299
RightFoot  -0.994437 -0.733925 8.01631
RightToes  -1.33073e-015 0 -3.6325e-017
Spine  5.48294 0.544129 -6.33062
Spine1  9.80289 0.625984 -3.38063
HEad  -44.5726 -7.15363 4.85525
LeftShoulder1  -0.0931837 3.72927 -35.1048
LeftArm  -0.809332 -18.577 -40.4753
LeftForeArm  28.9504 -10.5022 -8.96144
LeftHand  0.01669 8.09454 2.36896
RightShoulder  -1.0093 -6.23788 30.3447
RightArm  35.5152 -10.2975 47.017
RightForeArm  6.97309 17.7291 6.66577
RightHand  0.0318215 4.81711 0.0337961
LeftUpLeg  -5.47365 6.54343 -5.74208
LeftLeg  15.8046 1.10028 -1.56607
LeftFoot  -1.847 -0.237455 2.99468
LeftToes  -1.63346e-009 7.54925e-011 9.86887e-012
841
root  71.7448 38.4947 -0.59358 55.5338 84.337 61.8881
RightUpLeg  -16.6021 1.49803 -7.2734
RightLeg  52.3638 1.17616 1.27425
RightFoot  -1.4115 -0.716382 8.12673
RightToes  -1.33073e-015 0 -3.6325e-017
Spine  5.02049 0.33757 -8.06733
Spine1  8.84105 -0.249574 -0.335268
HEad  -45.471 -6.8281 5.15304
LeftShoulder1  -0.173386 3.92018 -35.4727
LeftArm  1.36421 -22.9193 -40.3575
LeftForeArm  24.2002 -12.9604 -8.26731
LeftHand  0.0190903 7.29062 3.31613
RightShoulder  -0.919501 -6.042 29.6512
RightArm  34.1573 -10.7076 47.5587
RightForeArm  6.17859 17.6613 6.63204
RightHand  0.0590899 4.88401 0.365004
LeftUpLeg  -5.27048 6.85431 -4.69684
LeftLeg  14.6293 0.507669 -2.37809
LeftFoot  -2.53358 -0.18315 2.56903
LeftToes  -1.63346e-009 7.54925e-011 9.86887e-012
842
root  72.5131 38.6088 -0.745853 51.8589 84.9672 57.3038
RightUpLeg  -18.016 1.9252 -5.91199
RightLeg  43.3951 1.14681 0.848311
RightFoot  -1.70697 -0.720314 8.40286
RightToes  -1.33073e-015 0 -3.6325e-017
Spine  3.63703 -0.107063 -7.34148
Spine1  9.54028 -0.541149 -0.342686
HEad  -46.633 -6.15137 5.52235
LeftShoulder1  -0.126467 3.81042 -35.1148
LeftArm  4.07002 -26.0618 -40.5386
LeftForeArm  19.2781 -16.1113 -6.91677
LeftHand  0.0119101 6.54195 4.23603
RightShoulder  -0.936846 -6.08171 29.7655
RightArm  33.2941 -9.84986 47.7017
RightForeArm  6.85536 16.7341 7.09108
RightHand  0.0435523 4.27296 0.244538
LeftUpLeg  -4.47524 6.72685 -4.01891
LeftLeg  13.7417 0.47504 -2.63862
LeftFoot  -3.6993 -0.136875 2.39065
LeftToes  -1.63346e-009 7.54925e-011 9.86887e-012
843
root  73.2325 38.7129 -0.84055 51.5034 84.8024 56.7184
RightUpLeg  -18.0001 2.98868 -5.61162
RightLeg  33.2559 1.75951 1.00641
RightFoot  -1.10208 -0.734901 8.10993
RightToes  -1.33073e-015 0 -3.6325e-017
Spine  3.43965 -0.165477 -8.19779
Spine1  9.55396 -0.800061 0.917712
HEad  -47.6828 -6.05298 6.0347
LeftShoulder1  -0.138724 3.84144 -34.8979
LeftArm  7.13802 -28.6527 -40.6232
LeftForeArm  15.1187 -19.3757 -5.40428
LeftHand  0.00617589 6.17427 4.96218
RightShoulder  -0.910498 -6.01987 29.6042
RightArm  32.2474 -8.78648 47.918
RightForeArm  7.84737 16.0814 7.36923
RightHand  0.0534714 3.93723 0.39959
LeftUpLeg  -2.73062 6.77471 -4.09676
LeftLeg  12.2644 0.518955 -2.9088
LeftFoot  -4.13219 -0.155141 2.85488
LeftToes  -1.63346e-009 7.54925e-011 9.86887e-012
844
root  73.9251 38.7354 -0.975271 55.5204 84.7441 60.1406
RightUpLeg  -17.7585 3.98825 -5.83777
RightLeg  22.8299 2.41435 0.968028
RightFoot  -1.15801 -0.856873 9.49787
RightToes  -1.33073e-015 0 -3.6325e-017
Spine  3.24014 -0.296072 -7.72062
Spine1  9.26467 -0.68799 0.508339
HEad  -48.843 -6.67686 6.8363
LeftShoulder1  -0.0637125 3.66141 -34.3015
LeftArm  9.58733 -30.8849 -40.7638
LeftForeArm  12.5365 -22.1853 -4.55155
LeftHand  -0.0256751 5.35065 5.15691
RightShoulder  -0.907396 -6.02032 29.4746
RightArm  32.683 -7.8414 48.0914
RightForeArm  8.2945 15.9612 7.49582
RightHand  0.0778319 3.02287 0.840703
LeftUpLeg  -1.86693 6.50615 -4.6772
LeftLeg  11.5588 0.403801 -2.7868
LeftFoot  -5.09498 -0.122119 2.80369
LeftToes  -1.63346e-009 7.54925e-011 9.86887e-012
845
root  74.6944 38.7745 -1.18871 57.8584 84.8337 62.0434
RightUpLeg  -16.886 3.26086 -5.48662
RightLeg  13.088 4.49303 0.586047
RightFoot  0.0826033 -0.916403 9.16922
RightToes  -1.33073e-015 0 -3.6325e-017
Spine  2.19155 -0.519315 -5.87175
Spine1  10.0992 -0.470951 -0.698272
HEad  -49.9628 -7.2069 7.34906
LeftShoulder1  -0.0225822 3.56035 -33.9034
LeftArm  8.85917 -32.0384 -41.0719
LeftForeArm  12.9566 -24.9502 -4.60841
LeftHand  -0.0550892 4.67054 5.70366
RightShoulder  -0.913437 -6.041 29.421
RightArm  31.0523 -6.62545 48.1545
RightForeArm  8.90426 15.1393 7.80234
RightHand  0.0910883 3.46562 0.981486
LeftUpLeg  -0.579577 6.27996 -5.07424
LeftLeg  10.5906 0.296483 -2.59239
LeftFoot  -6.20402 -0.0845152 2.70906
LeftToes  -1.63346e-009 7.54925e-011 9.86887e-012
846
root  75.384 38.8071 -1.32234 74.4404 85.3737 77.7593
RightUpLeg  -16.3416 -2.48207 -3.95526
RightLeg  5.17469 10.0363 -0.759239
RightFoot  2.22601 -0.895096 7.65849
RightToes  -1.33073e-015 0 -3.6325e-017
Spine  1.34295 -1.00804 -4.79102
Spine1  10.2216 -0.838697 -0.888284
HEad  -50.8525 -7.54166 7.62587
LeftShoulder1  -0.0163791 3.54485 -33.8298
LeftArm  9.5867 -32.8924 -41.0745
LeftForeArm  14.2171 -27.382 -5.13439
LeftHand  -0.0540694 4.72991 5.99856
RightShoulder  -0.902819 -6.01988 29.2989
RightArm  30.6831 -5.60884 48.0106
RightForeArm  8.17197 14.7017 8.06264
RightHand  -0.00796406 4.28178 -0.387259
LeftUpLeg  -0.146109 5.72775 -5.50364
LeftLeg  10.0963 -0.79839 -2.57376
LeftFoot  -7.30991 -0.0365848 2.28395
LeftToes  -1.63346e-009 7.54925e-011 9.86887e-012
847
root  76.1764 38.7714 -1.43308 76.3879 84.8621 79.9176
RightUpLeg  -15.2325 -4.93808 -3.74494
RightLeg  0.650424 12.6585 -1.18363
RightFoot  3.6416 -0.828987 6.46909
RightToes  -1.33073e-015 0 -3.6325e-017
Spine  0.922041 -0.735474 -3.2858
Spine1  10.8117 -0.204062 -2.12386
HEad  -51.5701 -7.73087 7.90779
LeftShoulder1  -0.037759 3.59848 -33.7652
LeftArm  10.5092 -32.9518 -41.417
LeftForeArm  15.5271 -29.6662 -5.59678
LeftHand  -0.0530777 4.66261 5.22816
RightShoulder  -0.904078 -6.02271 29.3071
RightArm  29.858 -5.75735 47.5724
RightForeArm  8.70129 16.0256 7.13643
RightHand  0.0109378 4.17584 -0.148287
LeftUpLeg  1.64144 5.58346 -6.10907
LeftLeg  9.68492 -0.7566 -2.59805
LeftFoot  -8.66291 0.00339596 2.11635
LeftToes  -1.63346e-009 7.54925e-011 9.86887e-012
